<svg width="176" height="113" viewBox="0 0 176 113" fill="none" xmlns="http://www.w3.org/2000/svg"><path d="M0 8a8 8 0 018-8h160a8 8 0 018 8v97a8 8 0 01-8 8H8a8 8 0 01-8-8V8z" fill="#fff"/><path d="M138.134 78.707h-3.894c-.221-22.981-16.767-42.041-38.617-46.101a47.722 47.722 0 00-8.728-.802H86.7c-2.265 0-4.502.166-6.684.498a47.163 47.163 0 00-10.994 2.983 47.344 47.344 0 00-11.905 7.044 47.703 47.703 0 00-9.724 10.8 46.131 46.131 0 00-4.336 8.26 46.717 46.717 0 00-1.989 6.131 46.663 46.663 0 00-1.436 11.187H35.71c.028-5 .801-9.806 2.155-14.363.607-2.044 1.353-4.005 2.182-5.94a51.346 51.346 0 014.502-8.093 51.968 51.968 0 019.834-10.745c3.536-2.9 7.458-5.358 11.684-7.237a50.87 50.87 0 0110.58-3.397 52.362 52.362 0 016.298-.884c1.298-.11 2.624-.138 3.95-.138 1.408 0 2.79.055 4.17.165 26.214 2.1 46.848 23.921 47.069 50.632z" fill="#DBDBDB"/><path d="M63.222 78.708c.221-12.9 10.745-23.314 23.7-23.314s23.479 10.386 23.7 23.314h23.618c-.249-25.965-21.325-46.93-47.318-46.93-25.992 0-47.096 20.965-47.317 46.93h23.617z" fill="#fff"/><path d="M39.605 78.707h23.617a23.554 23.554 0 014.226-13.12L48.361 51.693c-5.441 7.623-8.673 16.932-8.756 27.014z" fill="#EDBFCD"/><path d="M106.258 65.421c2.679 3.757 4.254 8.342 4.337 13.287h23.617c-.083-10.138-3.342-19.502-8.839-27.153L106.258 65.42z" fill="#D14671"/><path d="M94.49 56.638a23.566 23.566 0 0111.326 8.148l19.115-13.866c-5.746-7.735-13.784-13.646-23.12-16.712l-7.32 22.43z" fill="#EC779B"/><path d="M67.918 64.924a23.765 23.765 0 0111.16-8.204l-7.293-22.457c-9.281 3.121-17.264 9.06-22.954 16.767l19.087 13.894z" fill="#E7A5B9"/><path d="M79.823 56.471a24 24 0 017.1-1.077c2.375 0 4.64.36 6.794.995l7.293-22.458a47.526 47.526 0 00-14.088-2.127c-5.027 0-9.86.774-14.391 2.238l7.292 22.43z" fill="#EB92AE"/><path d="M86.922 33.6c24.999 0 45.274 20.165 45.495 45.108h1.823c-.249-25.965-21.325-46.93-47.318-46.93-25.992 0-47.096 20.965-47.317 46.93h1.823C41.65 53.765 61.924 33.6 86.922 33.6z" fill="#E5E5E5"/><path d="M66.647 78.707c.221-10.966 9.31-19.86 20.275-19.86 10.966 0 20.054 8.922 20.275 19.86h3.508v-.027c-.11-6.27-2.624-12.126-7.099-16.546-4.474-4.392-10.386-6.823-16.684-6.823a23.716 23.716 0 00-16.684 6.823c-4.475 4.392-6.988 10.276-7.099 16.546v.027h3.508z" fill="#E6E7E8"/><path d="M111.561 78.708h-.856v-.028c-.11-6.27-2.624-12.126-7.099-16.546-4.475-4.392-10.386-6.823-16.684-6.823a23.716 23.716 0 00-16.684 6.823c-4.475 4.392-6.988 10.276-7.099 16.546v.028h-.856c.22-13.425 11.16-24.253 24.64-24.253 13.479 0 24.418 10.828 24.638 24.253z" fill="#D1D3D4"/><path d="M108.081 49.98a1.043 1.043 0 00-1.436.221l-19.28 25.164a3.76 3.76 0 00-3.453 1.52 3.804 3.804 0 00-.36 3.811l-3.038 2.873a.761.761 0 00.083 1.16l1.464 1.05 1.464 1.05a.771.771 0 001.132-.277l1.796-3.784c1.326.166 2.68-.36 3.508-1.52.829-1.132.911-2.568.386-3.756l17.983-26.13c.304-.415.221-1.05-.249-1.382z" fill="#53555E"/><path d="M86.425 82.796L84.63 86.58c-.194.414-.746.552-1.133.276l-1.464-1.05 26.048-35.826c.47.332.553.995.221 1.437L90.32 77.547a3.704 3.704 0 01-.387 3.757 3.688 3.688 0 01-3.508 1.492z" fill="#fff" fill-opacity=".1"/></svg>