<svg id="eDN3puX8Jgb1" xmlns="http://www.w3.org/2000/svg" xmlns:xlink="http://www.w3.org/1999/xlink" viewBox="0 0 612 792" shape-rendering="geometricPrecision" text-rendering="geometricPrecision">
<style><![CDATA[
#eDN3puX8Jgb2_tr {animation: eDN3puX8Jgb2_tr__tr 5000ms linear 1 normal forwards}@keyframes eDN3puX8Jgb2_tr__tr { 0% {transform: translate(226.035269px,360.843832px) rotate(0deg)} 4% {transform: translate(226.035269px,360.843832px) rotate(-66deg)} 8% {transform: translate(226.035269px,360.843832px) rotate(-90deg)} 12% {transform: translate(226.035269px,360.843832px) rotate(-120deg)} 16% {transform: translate(226.035269px,360.843832px) rotate(-150deg)} 20% {transform: translate(226.035269px,360.843832px) rotate(-180deg)} 24% {transform: translate(226.035269px,360.843832px) rotate(-195deg)} 32% {transform: translate(226.035269px,360.843832px) rotate(-180deg)} 34% {transform: translate(226.035269px,360.843832px) rotate(-180deg)} 38% {transform: translate(226.035269px,360.843832px) rotate(-180deg)} 42% {transform: translate(226.035269px,360.843832px) rotate(-180deg)} 46% {transform: translate(226.035269px,360.843832px) rotate(-180deg)} 50% {transform: translate(226.035269px,360.843832px) rotate(-180deg)} 56% {transform: translate(226.035269px,360.843832px) rotate(-180deg)} 60% {transform: translate(226.035269px,360.843832px) rotate(-180deg)} 64% {transform: translate(226.035269px,360.843832px) rotate(-180deg)} 68% {transform: translate(226.035269px,360.843832px) rotate(-180deg)} 72% {transform: translate(226.035269px,360.843832px) rotate(-180deg)} 76% {transform: translate(226.035269px,360.843832px) rotate(-180deg)} 80% {transform: translate(226.035269px,360.843832px) rotate(-180deg)} 82% {transform: translate(226.035269px,360.843832px) rotate(-180deg)} 84% {transform: translate(226.035269px,360.843832px) rotate(-180deg)} 88% {transform: translate(226.035269px,360.843832px) rotate(-180deg)} 90% {transform: translate(226.035269px,360.843832px) rotate(-140deg)} 96% {transform: translate(226.035269px,360.843832px) rotate(-90deg)} 98% {transform: translate(226.035269px,360.843832px) rotate(-30deg)} 100% {transform: translate(226.035269px,360.843832px) rotate(0deg)}} #eDN3puX8Jgb3_tr {animation: eDN3puX8Jgb3_tr__tr 5000ms linear 1 normal forwards}@keyframes eDN3puX8Jgb3_tr__tr { 0% {transform: translate(306px,356.202754px) rotate(0deg)} 24% {transform: translate(306px,356.202754px) rotate(0deg)} 28% {transform: translate(306px,356.202754px) rotate(-33deg)} 32% {transform: translate(306px,356.202754px) rotate(-66deg)} 36% {transform: translate(306px,356.202754px) rotate(-99deg)} 40% {transform: translate(306px,356.202754px) rotate(-133deg)} 44% {transform: translate(306px,356.202754px) rotate(-166deg)} 48% {transform: translate(306px,356.202754px) rotate(-199deg)} 52% {transform: translate(306px,356.202754px) rotate(-224deg)} 54% {transform: translate(306px,356.202754px) rotate(-228deg)} 56% {transform: translate(306px,356.202754px) rotate(-224deg)} 60% {transform: translate(306px,356.202754px) rotate(-190deg)} 64% {transform: translate(306px,356.202754px) rotate(-160deg)} 68% {transform: translate(306px,356.202754px) rotate(-130deg)} 72% {transform: translate(306px,356.202754px) rotate(-110deg)} 76% {transform: translate(306px,356.202754px) rotate(-80deg)} 80% {transform: translate(306px,356.202754px) rotate(-40deg)} 84% {transform: translate(306px,356.202754px) rotate(10deg)} 88% {transform: translate(306px,356.202754px) rotate(15deg)} 92% {transform: translate(306px,356.202754px) rotate(0deg)} 96% {transform: translate(306px,356.202754px) rotate(0deg)} 100% {transform: translate(306px,356.202754px) rotate(0deg)}}
]]></style>
<g id="eDN3puX8Jgb2_tr" transform="translate(226.035269,360.843832) rotate(0)"><path d="M192.77,357.45c0-19.01,12.38-32.54,31.39-32.54c9.79,0,16.42,3.46,16.42,8.35c0,3.17-2.88,4.9-5.76,4.9-3.17,0-4.32-2.3-4.9-3.17-2.02-2.88-2.88-4.03-7.2-4.03-12.1,0-23.33,10.94-23.33,27.07c0,15.84,10.66,26.78,25.34,26.78c15.84,0,25.63-10.94,25.63-29.66v-140.84c0-5.18-1.15-5.18-4.9-5.18v-4.9h11.52v150.91c0,22.75-12.38,36-31.39,36-19.58,0-32.82-13.82-32.82-33.69Z" transform="translate(-224.875,-360.843832)" fill="#003a64"/></g><g id="eDN3puX8Jgb3_tr" transform="translate(306,356.202754) rotate(0)"><path d="M367.87,478.12c0,41.76-28.22,71.13-68.83,71.13s-69.41-29.09-69.41-67.39c0-39.74,29.95-67.39,66.53-67.39c12.96,0,18.14,3.46,18.14,8.35c0,3.46-2.59,4.9-5.47,4.9s-4.03-1.44-5.18-3.17c-2.59-3.74-4.03-3.74-7.2-3.74-35.14,0-60.48,26.21-60.48,60.48c0,35.42,26.5,61.92,63.07,61.92c37.15,0,62.21-27.07,62.21-65.66c0-41.47-28.8-54.72-61.34-68.54-8.93-3.74-19.01-7.78-19.01-18.72c0-2.88.86-5.76,2.3-8.06-6.62-6.05-10.94-14.98-10.94-24.77c0-18.43,14.69-32.83,32.83-32.83c7.78,0,14.98,2.59,20.45,7.2c4.03-4.03,9.22-6.34,14.11-6.34c4.61,0,7.2,2.59,7.2,6.34c0,3.46-2.02,5.47-5.76,5.47-4.03,0-4.61-2.3-8.06-2.3-1.44,0-2.59.29-3.46.58c4.9,5.76,8.06,13.54,8.06,21.89c0,18.43-14.69,33.41-32.54,33.41-6.05,0-11.81-1.73-16.99-4.61-.29.86-.58,2.02-.58,3.46c0,8.93,9.5,11.52,14.98,13.82c25.91,10.06,65.37,25.32,65.37,74.57Zm-62.5-93.6c16.99,0,26.21-14.11,26.21-27.07c0-14.98-11.81-26.78-26.5-26.78s-26.21,11.81-26.21,27.07c.01,14.97,11.24,26.78,26.5,26.78Z" transform="translate(-306,-356.202739)" fill="#003a64"/></g></svg>
